<svg width="695" height="656" viewBox="0 0 695 656" fill="none" xmlns="http://www.w3.org/2000/svg">
<line x1="662.5" x2="662.5" y2="624" stroke="white"/>
<line x1="694.5" y1="31" x2="694.5" y2="655" stroke="white"/>
<line x1="624" y1="624.5" y2="624.5" stroke="white"/>
<line x1="662" y1="655.5" x2="38" y2="655.5" stroke="white"/>
<g filter="url(#filter0_d_174_38)">
<path d="M407.318 578.2C405.918 569.6 399.718 558.9 388.118 550.1C382.318 545.7 376.618 542.9 371.118 541.8V537.6C382.218 535.1 393.218 527.3 400.418 517.1C404.018 512 406.318 506.8 407.318 501.4H411.518C413.218 511.6 421.218 522.7 431.718 530.2C436.918 533.9 442.318 536.4 447.918 537.6V541.8C436.618 544.1 423.718 553.9 417.418 564C414.218 569.1 412.218 573.8 411.518 578.2H407.318ZM408.718 575.8H410.118C411.118 565.4 414.218 554.1 417.718 548.2C424.418 544.4 436.518 541.2 445.318 540.6V539.2C436.518 538.5 423.918 535.1 417.718 531.4C414.218 525.4 411.118 514.4 410.118 504H408.718C407.918 513.4 404.918 524.7 401.118 531.4C394.718 535.1 382.718 538.5 373.518 539.2V540.6C382.618 541.3 394.318 544.4 401.118 548.2C404.818 554.7 407.918 566.2 408.718 575.8ZM456.029 546.8V540.8H463.229V533.8H469.829V540.8H477.029V546.8H469.829V553.8H463.229V546.8H456.029ZM493.782 561.7L488.382 557.3L501.382 542.3L484.082 537L486.682 530.5L502.882 538.1L501.282 520.4H509.082L507.282 538.1L523.182 530.9L525.782 537L508.682 542.2L521.282 557.3L515.782 561.6L504.982 545L493.782 561.7ZM555.582 537C553.116 537 550.849 536.4 548.782 535.2C546.716 534 545.082 532.4 543.882 530.4C542.682 528.333 542.082 526.067 542.082 523.6C542.082 521.667 542.449 519.9 543.182 518.3C543.916 516.633 544.882 515.2 546.082 514C547.349 512.8 548.782 511.867 550.382 511.2C552.049 510.467 553.782 510.1 555.582 510.1C558.049 510.1 560.282 510.733 562.282 512C564.349 513.2 565.982 514.833 567.182 516.9C568.449 518.9 569.082 521.133 569.082 523.6C569.082 526 568.482 528.233 567.282 530.3C566.082 532.3 564.449 533.933 562.382 535.2C560.382 536.4 558.116 537 555.582 537ZM555.582 531.5C557.049 531.5 558.316 531.133 559.382 530.4C560.516 529.667 561.416 528.7 562.082 527.5C562.749 526.233 563.082 524.9 563.082 523.5C563.082 522.1 562.749 520.8 562.082 519.6C561.482 518.333 560.616 517.333 559.482 516.6C558.416 515.8 557.149 515.4 555.682 515.4C554.349 515.4 553.082 515.8 551.882 516.6C550.749 517.333 549.849 518.3 549.182 519.5C548.516 520.7 548.182 522.033 548.182 523.5C548.182 524.9 548.516 526.233 549.182 527.5C549.849 528.7 550.749 529.667 551.882 530.4C553.016 531.133 554.249 531.5 555.582 531.5Z" fill="white"/>
</g>
<defs>
<filter id="filter0_d_174_38" x="371.118" y="501.4" width="211.965" height="84.7999" filterUnits="userSpaceOnUse" color-interpolation-filters="sRGB">
<feFlood flood-opacity="0" result="BackgroundImageFix"/>
<feColorMatrix in="SourceAlpha" type="matrix" values="0 0 0 0 0 0 0 0 0 0 0 0 0 0 0 0 0 0 127 0" result="hardAlpha"/>
<feOffset dx="10" dy="4"/>
<feGaussianBlur stdDeviation="2"/>
<feComposite in2="hardAlpha" operator="out"/>
<feColorMatrix type="matrix" values="0 0 0 0 0.2 0 0 0 0 0.0308333 0 0 0 0 0.0308333 0 0 0 0.65 0"/>
<feBlend mode="normal" in2="BackgroundImageFix" result="effect1_dropShadow_174_38"/>
<feBlend mode="normal" in="SourceGraphic" in2="effect1_dropShadow_174_38" result="shape"/>
</filter>
</defs>
</svg>
